<svg width="14.000000" height="14.000000" viewBox="0 0 14 14" fill="none" xmlns="http://www.w3.org/2000/svg" xmlns:xlink="http://www.w3.org/1999/xlink">
	
	<defs>
		<clipPath id="clip4_115">
			<rect id="List" width="14.000000" height="14.000000" fill="white" fill-opacity="0"/>
		</clipPath>
	</defs>
	<g clip-path="url(#clip4_115)">
		<path id="Vector" d="M2.2 7.47L2.18 7.5C1.9 7.5 1.68 7.28 1.68 7C1.68 6.71 1.9 6.5 2.18 6.5L2.2 6.52L2.2 7.47ZM11.79 6.52L11.81 6.5C12.09 6.5 12.31 6.71 12.31 7C12.31 7.28 12.09 7.5 11.81 7.5L11.79 7.47L11.79 6.52Z" fill="#252525" fill-opacity="1.000000" fill-rule="nonzero"/>
		<path id="Vector" d="M2.18 7L11.81 7" stroke="#ffffff" stroke-opacity="1.000000" stroke-width="1.000000" stroke-linejoin="round" stroke-linecap="round"/>
		<path id="Vector" d="M2.2 3.97L2.18 4C1.9 4 1.68 3.78 1.68 3.5C1.68 3.21 1.9 3 2.18 3L2.2 3.02L2.2 3.97ZM11.79 3.02L11.81 3C12.09 3 12.31 3.21 12.31 3.5C12.31 3.78 12.09 4 11.81 4L11.79 3.97L11.79 3.02Z" fill="#252525" fill-opacity="1.000000" fill-rule="nonzero"/>
		<path id="Vector" d="M2.18 3.5L11.81 3.5" stroke="#ffffff" stroke-opacity="1.000000" stroke-width="1.000000" stroke-linejoin="round" stroke-linecap="round"/>
		<path id="Vector" d="M2.2 10.98L2.18 11C1.9 11 1.68 10.78 1.68 10.5C1.68 10.22 1.9 10 2.18 10L2.2 10.02L2.2 10.98ZM11.79 10.02L11.81 10C12.09 10 12.31 10.22 12.31 10.5C12.31 10.78 12.09 11 11.81 11L11.79 10.98L11.79 10.02Z" fill="#252525" fill-opacity="1.000000" fill-rule="nonzero"/>
		<path id="Vector" d="M2.18 10.5L11.81 10.5" stroke="#ffffff" stroke-opacity="1.000000" stroke-width="1.000000" stroke-linejoin="round" stroke-linecap="round"/>
	</g>
</svg>