<svg width="14.000000" height="14.000000" viewBox="0 0 14 14" fill="none" xmlns="http://www.w3.org/2000/svg" xmlns:xlink="http://www.w3.org/1999/xlink">
	<desc>
			Created with Pixso.
	</desc>
	<defs>
		<clipPath id="clip7_1142">
			<rect id="Trash" width="14.000000" height="14.000000" fill="white" fill-opacity="0"/>
		</clipPath>
	</defs>
	<g clip-path="url(#clip7_1142)">
		<path id="Vector" d="M11.81 3.06L2.18 3.06" stroke="#252525" stroke-opacity="1.000000" stroke-width="1.000000" stroke-linejoin="round" stroke-linecap="round"/>
		<path id="Vector" d="M5.68 5.68L5.68 9.18" stroke="#252525" stroke-opacity="1.000000" stroke-width="1.000000" stroke-linejoin="round" stroke-linecap="round"/>
		<path id="Vector" d="M8.31 5.68L8.31 9.18" stroke="#252525" stroke-opacity="1.000000" stroke-width="1.000000" stroke-linejoin="round" stroke-linecap="round"/>
		<path id="Vector" d="M10.93 3.06L10.93 11.37C10.93 11.49 10.89 11.6 10.8 11.68C10.72 11.76 10.61 11.81 10.5 11.81L3.5 11.81C3.38 11.81 3.27 11.76 3.19 11.68C3.1 11.6 3.06 11.49 3.06 11.37L3.06 3.06" stroke="#252525" stroke-opacity="1.000000" stroke-width="1.000000" stroke-linejoin="round" stroke-linecap="round"/>
		<path id="Vector" d="M9.18 3.06L9.18 2.18C9.18 1.95 9.09 1.73 8.93 1.56C8.76 1.4 8.54 1.31 8.31 1.31L5.68 1.31C5.45 1.31 5.23 1.4 5.06 1.56C4.9 1.73 4.81 1.95 4.81 2.18L4.81 3.06" stroke="#252525" stroke-opacity="1.000000" stroke-width="1.000000" stroke-linejoin="round" stroke-linecap="round"/>
	</g>
</svg>
